{
  "title": "Phantom {2015} 1/3 DesiScr Rip XviD MP3 {Team DUS} - jnmjy",
  "uid": 12313893,
  "size": 1599063196,
  "categoryP": "video",
  "categoryS": "movies",
  "magnet": "?xt=urn:btih:61e5e1e3315ca47d088fdc3044fe40e0c8177ca8&amp;dn=Phantom+%7B2015%7D+1%2F3+DesiScr+Rip+XviD+MP3+%7BTeam+DUS%7D+-+jnmjy&amp;tr=udp%3A%2F%2Ftracker.openbittorrent.com%3A80&amp;tr=udp%3A%2F%2Fopen.demonii.com%3A1337&amp;tr=udp%3A%2F%2Ftracker.coppersurfer.tk%3A6969&amp;tr=udp%3A%2F%2Fexodus.desync.com%3A6969",
  "seeders": 109,
  "leechers": 74,
  "uploader": "SS132203",
  "files": 3,
  "time": 1440955823,
  "description": "Phantom {2015} 1/3 DesiScr Rip XviD MP3 {Team DUS} - jnmjy\n &lt;a href=&quot;\nhttp://imgsparrow.co/image/8zX&quot; rel=&quot;nofollow&quot; target=&quot;_NEW&quot;&gt;\nhttp://imgsparrow.co/image/8zX&lt;/a&gt;\n &lt;a href=&quot;\nhttp://imgsparrow.co/image/8zu&quot; rel=&quot;nofollow&quot; target=&quot;_NEW&quot;&gt;\nhttp://imgsparrow.co/image/8zu&lt;/a&gt;\n &lt;a href=&quot;\nhttp://imgsparrow.co/image/9b&quot; rel=&quot;nofollow&quot; target=&quot;_NEW&quot;&gt;\nhttp://imgsparrow.co/image/9b&lt;/a&gt;\n\nInfo : - \n\nPlease Support The Filmmakers\nDon't Just Download Go Watch In Theater Also\n\nThank Team DUS Not ME!\n\nYear.............: 2015\nSource: IcTv\nRipper...........: jnmjy\n\nGeneral\n\nFormat                                   : AVI\nFormat/Info                              : Audio Video Interleave\nFile size                                : 1.46 GiB\nDuration                                 : 2h 14mn\nOverall bit rate mode                    : Variable\nOverall bit rate                         : 1 562 Kbps\n\nVideo\nID                                       : 0\nFormat                                   : MPEG-4 Visual\nFormat profile                           : Advanced Simple@L5\nFormat settings, BVOP                    : 2\nFormat settings, QPel                    : No\nFormat settings, GMC                     : No warppoints\nFormat settings, Matrix                  : Default (H.263)\nCodec ID                                 : XVID\nCodec ID/Hint                            : XviD\nDuration                                 : 2h 14mn\nBit rate                                 : 1 463 Kbps\nWidth                                    : 640 pixels\nHeight                                   : 272 pixels\nDisplay aspect ratio                     : 2.35:1\nFrame rate                               : 23.976 fps\nColor space                              : YUV\nChroma subsampling                       : 4:2:0\nBit depth                                : 8 bits\nScan type                                : Progressive\nCompression mode                         : Lossy\nBits/(Pixel*Frame)                       : 0.350\nStream size                              : 1.37 GiB (94%)\nWriting library                          : XviD 1.2.1 (UTC 2008-12-04)\n\nAudio\nID                                       : 1\nFormat                                   : MPEG Audio\nFormat version                           : Version 1\nFormat profile                           : Layer 3\nMode                                     : Joint stereo\nMode extension                           : MS Stereo\nCodec ID                                 : 55\nCodec ID/Hint                            : MP3\nDuration                                 : 2h 14mn\nBit rate mode                            : Variable\nBit rate                                 : 89.2 Kbps\nNominal bit rate                         : 96.0 Kbps\nChannel(s)                               : 2 channels\nSampling rate                            : 32.0 KHz\nCompression mode                         : Lossy\nStream size                              : 85.5 MiB (6%)\nAlignment                                : Aligned on interleaves\nInterleave, duration                     : 36 ms (0.86 video frame)\nInterleave, preload duration             : 116 ms\nWriting library                          : LAME3.99r\nEncoding settings                        : -m j -V 4 -q 2 -lowpass 15.1 --abr 96\n\nScreens : - \n &lt;a href=&quot;\nhttp://imgsparrow.co/image/8zY&quot; rel=&quot;nofollow&quot; target=&quot;_NEW&quot;&gt;\nhttp://imgsparrow.co/image/8zY&lt;/a&gt; &lt;a href=&quot;\nhttp://imgsparrow.co/image/8zc&quot; rel=&quot;nofollow&quot; target=&quot;_NEW&quot;&gt;\nhttp://imgsparrow.co/image/8zc&lt;/a&gt; &lt;a href=&quot;\nhttp://imgsparrow.co/image/8zd&quot; rel=&quot;nofollow&quot; target=&quot;_NEW&quot;&gt;\nhttp://imgsparrow.co/image/8zd&lt;/a&gt; &lt;a href=&quot;\nhttp://imgsparrow.co/image/8zo&quot; rel=&quot;nofollow&quot; target=&quot;_NEW&quot;&gt;\nhttp://imgsparrow.co/image/8zo&lt;/a&gt; &lt;a href=&quot;\nhttp://imgsparrow.co/image/8zM&quot; rel=&quot;nofollow&quot; target=&quot;_NEW&quot;&gt;\nhttp://imgsparrow.co/image/8zM&lt;/a&gt; &lt;a href=&quot;\nhttp://imgsparrow.co/image/8zm&quot; rel=&quot;nofollow&quot; target=&quot;_NEW&quot;&gt;\nhttp://imgsparrow.co/image/8zm&lt;/a&gt; &lt;a href=&quot;\nhttp://imgsparrow.co/image/8zF&quot; rel=&quot;nofollow&quot; target=&quot;_NEW&quot;&gt;\nhttp://imgsparrow.co/image/8zF&lt;/a&gt; &lt;a href=&quot;\nhttp://imgsparrow.co/image/8zO&quot; rel=&quot;nofollow&quot; target=&quot;_NEW&quot;&gt;\nhttp://imgsparrow.co/image/8zO&lt;/a&gt; &lt;a href=&quot;\nhttp://imgsparrow.co/image/8zp&quot; rel=&quot;nofollow&quot; target=&quot;_NEW&quot;&gt;\nhttp://imgsparrow.co/image/8zp&lt;/a&gt;\n &lt;a href=&quot;\nhttp://imgsparrow.co/image/N2&quot; rel=&quot;nofollow&quot; target=&quot;_NEW&quot;&gt;\nhttp://imgsparrow.co/image/N2&lt;/a&gt;",
  "parsed": {
    "xt": "urn:btih:61e5e1e3315ca47d088fdc3044fe40e0c8177ca8",
    "dn": "Phantom {2015} 1/3 DesiScr Rip XviD MP3 {Team DUS} - jnmjy",
    "tr": [
      "udp://exodus.desync.com:6969",
      "udp://open.demonii.com:1337",
      "udp://tracker.coppersurfer.tk:6969",
      "udp://tracker.openbittorrent.com:80"
    ],
    "infoHash": "61e5e1e3315ca47d088fdc3044fe40e0c8177ca8",
    "infoHashBuffer": {
      "type": "Buffer",
      "data": [
        97,
        229,
        225,
        227,
        49,
        92,
        164,
        125,
        8,
        143,
        220,
        48,
        68,
        254,
        64,
        224,
        200,
        23,
        124,
        168
      ]
    },
    "name": "Phantom {2015} 1/3 DesiScr Rip XviD MP3 {Team DUS} - jnmjy",
    "announce": [
      "udp://exodus.desync.com:6969",
      "udp://open.demonii.com:1337",
      "udp://tracker.coppersurfer.tk:6969",
      "udp://tracker.openbittorrent.com:80"
    ],
    "urlList": []
  },
  "previous": 183,
  "peers": 3,
  "last_updated": "2016-12-25T02:48:36.420Z"
}